<svg id="Layer_1" data-name="Layer 1" xmlns="http://www.w3.org/2000/svg" viewBox="0 0 462.04 455.74">
  <defs>
    <style>
      .cls-1 {
        fill: none;
        stroke: #9e1f63;
        stroke-width: 14px;
      }
    </style>
  </defs>
  <rect class="cls-1" x="154.44" y="384.39" width="131.28" height="64.35"/>
  <path class="cls-1" d="M540.27,602.42s3.86-18,14.16-30.89,47.62-23.16,50.19-55.34,21.88-94-42.47-151.87S388.4,325.71,360.09,418.38c0,0-15.45,66.92,0,108.11s45,45,48.9,52.76,0,23.17,0,23.17" transform="translate(-254.55 -237.33)"/>
  <line class="cls-1" x1="164.74" y1="255.69" x2="285.72" y2="255.69"/>
  <line class="cls-1" x1="220.08" y1="263.41" x2="220.08" y2="365.09"/>
  <line class="cls-1" x1="84.94" y1="370.24" x2="64.35" y2="398.55"/>
  <line class="cls-1" y1="229.64" x2="37.32" y2="229.64"/>
  <line class="cls-1" x1="226.72" x2="226.72" y2="54.91"/>
  <line class="cls-1" x1="368.09" y1="94.2" x2="402.84" y2="75.51"/>
  <line class="cls-1" x1="54.06" y1="69.07" x2="84.94" y2="94.2"/>
  <line class="cls-1" x1="410.56" y1="229.64" x2="462.04" y2="229.64"/>
  <line class="cls-1" x1="368.09" y1="365.09" x2="392.54" y2="398.55"/>
</svg>
